<?xml version="1.0" standalone="no"?>
<!DOCTYPE svg PUBLIC "-//W3C//DTD SVG 20010904//EN"
 "http://www.w3.org/TR/2001/REC-SVG-20010904/DTD/svg10.dtd">
<svg version="1.0" xmlns="http://www.w3.org/2000/svg"
 width="966.000000pt" height="965.000000pt" viewBox="0 0 966.000000 965.000000"
 preserveAspectRatio="xMidYMid meet">

<g transform="translate(0.000000,965.000000) scale(0.100000,-0.100000)"
fill="#000000" stroke="none">
<path d="M1625 8491 c-11 -5 -31 -21 -45 -36 l-25 -27 -2 -323 c-2 -215 1
-334 8 -355 21 -60 39 -64 289 -70 l225 -5 65 -32 c82 -40 152 -110 193 -193
l32 -65 3 -356 3 -356 -48 -18 c-86 -32 -375 -162 -478 -215 -204 -106 -487
-282 -557 -348 -57 -53 -33 -83 134 -165 273 -134 524 -230 861 -332 l87 -26
0 -65 c0 -35 -4 -64 -8 -64 -15 0 -327 99 -453 143 -255 91 -551 224 -732 329
l-68 39 -67 -60 c-444 -396 -687 -915 -658 -1409 19 -332 139 -642 367 -944
85 -113 370 -398 398 -398 12 0 113 45 224 99 226 112 380 175 637 262 162 55
338 109 357 109 4 0 6 -29 5 -65 l-4 -65 -71 -20 c-263 -77 -537 -179 -795
-297 -196 -90 -224 -120 -164 -175 69 -64 329 -222 542 -329 240 -120 601
-269 653 -269 19 0 29 -13 62 -92 135 -315 357 -618 644 -877 317 -286 727
-496 1145 -586 759 -163 1488 -7 2066 443 107 84 288 263 370 367 142 179 297
449 361 630 l22 61 141 48 c408 142 769 317 1093 533 192 127 192 120 -15 222
-330 162 -720 297 -1177 410 -210 51 -473 104 -490 98 -7 -3 -22 -38 -34 -79
-139 -465 -378 -878 -675 -1165 -124 -121 -190 -173 -319 -257 -73 -46 -88
-60 -85 -79 2 -18 10 -23 46 -25 54 -4 334 30 554 67 90 16 165 27 167 25 7
-6 -69 -96 -138 -164 -164 -163 -368 -272 -604 -321 -133 -28 -397 -31 -530
-5 -232 45 -441 153 -612 317 -75 72 -185 205 -185 223 0 3 18 -3 40 -14 107
-55 341 -120 428 -120 66 0 62 -56 62 880 l0 850 -26 16 c-23 16 -48 16 -317
5 -161 -7 -311 -15 -334 -18 l-43 -6 0 65 0 65 78 7 c71 6 505 25 579 26 66 0
63 -27 63 584 0 426 -3 556 -12 569 -11 14 -39 18 -183 23 -93 3 -242 9 -330
14 -88 6 -168 10 -177 10 -15 0 -18 10 -18 66 l0 67 53 -6 c28 -4 180 -11 335
-18 206 -8 290 -8 308 0 l24 11 0 906 0 907 -72 -8 c-192 -18 -438 -110 -621
-230 l-28 -18 3 279 c4 338 8 355 118 464 104 105 133 113 410 120 240 5 257
9 279 57 7 16 11 142 11 358 l0 335 -29 32 -29 33 -1634 2 c-898 1 -1642 -2
-1653 -6z m3125 -391 l0 -180 -382 -1 c-419 0 -462 -2 -558 -26 -230 -55 -423
-215 -525 -435 l-32 -71 -19 49 c-44 115 -167 264 -281 342 -82 56 -129 78
-230 109 l-88 27 -432 4 -433 3 0 180 0 179 1490 0 1490 0 0 -180z m-2035
-303 c113 -37 198 -90 285 -177 86 -86 139 -171 178 -285 l27 -80 5 -2235 c6
-2443 2 -2272 61 -2505 111 -437 401 -841 787 -1098 220 -147 473 -245 757
-293 123 -21 439 -24 570 -6 413 58 782 238 1068 519 160 157 267 301 368 498
45 87 62 111 83 116 14 4 26 3 26 -2 0 -17 -100 -201 -157 -288 -71 -110 -126
-181 -208 -270 -349 -380 -801 -615 -1315 -682 -137 -18 -458 -15 -613 6 -738
97 -1384 538 -1750 1193 -132 237 -221 499 -270 795 -21 131 -21 143 -27 2277
l-5 2145 -30 75 c-54 133 -141 238 -255 310 l-35 21 185 -4 c166 -4 193 -7
265 -30z m1479 -8 c-84 -58 -148 -132 -194 -224 -76 -153 -70 63 -70 -2531 0
-2269 1 -2335 20 -2446 102 -595 558 -1052 1161 -1164 143 -27 449 -24 586 5
310 65 554 198 761 416 88 92 190 232 228 312 12 27 28 44 43 48 13 3 25 4 27
2 2 -2 -24 -52 -59 -111 -227 -391 -562 -666 -988 -810 -206 -70 -332 -89
-584 -90 -277 0 -425 25 -653 109 -634 237 -1096 831 -1162 1495 -8 83 -10
720 -8 2290 l3 2175 31 86 c73 205 238 370 440 439 88 31 143 38 318 39 l159
1 -59 -41z"/>
<path d="M5864 8490 c-12 -4 -31 -21 -43 -36 -21 -26 -21 -34 -21 -368 1 -253
4 -345 13 -356 35 -44 42 -45 281 -50 210 -5 236 -8 289 -29 81 -32 168 -115
209 -199 l33 -66 3 -227 3 -226 -88 18 c-222 47 -663 114 -785 120 -53 3 -78
-12 -78 -47 0 -18 19 -36 89 -83 315 -212 578 -528 771 -926 64 -133 143 -339
185 -485 15 -52 32 -101 37 -107 16 -20 56 -16 236 23 550 117 1015 269 1410
459 261 126 263 130 102 245 -276 197 -700 414 -1072 549 l-103 37 0 309 c0
293 2 313 22 368 42 113 145 214 252 248 20 7 136 15 264 18 l229 6 29 33 29
32 0 336 c0 294 -2 338 -16 360 -38 57 21 54 -1166 53 -601 0 -1103 -4 -1114
-9z m2076 -389 l0 -179 -237 -5 c-262 -4 -306 -12 -423 -70 -83 -41 -204 -159
-253 -246 l-36 -65 -12 30 c-46 105 -154 218 -265 276 -127 66 -152 71 -436
76 l-258 4 0 179 0 179 960 0 960 0 0 -179z m-1268 -337 c80 -41 181 -147 223
-235 50 -105 56 -154 53 -430 l-3 -245 -47 14 -48 13 0 242 c0 267 -8 321 -59
427 -46 95 -102 163 -191 232 -32 25 -32 27 -8 18 15 -5 51 -21 80 -36z m624
-47 c-55 -55 -84 -94 -115 -158 -60 -121 -70 -192 -71 -497 l0 -252 -27 6
c-16 4 -32 10 -36 14 -5 4 -7 140 -5 301 3 276 5 297 26 349 44 109 126 208
227 272 33 21 63 38 67 38 4 0 -26 -33 -66 -73z"/>
<path d="M5000 6165 l0 -904 22 -12 c15 -8 74 -9 207 -5 181 7 471 22 561 31
25 2 79 7 120 10 223 19 699 82 713 94 19 18 -110 391 -203 588 -217 461 -586
842 -964 998 -144 59 -331 105 -428 105 l-28 0 0 -905z"/>
<path d="M8704 5915 c-40 -27 -339 -173 -461 -225 -371 -155 -864 -302 -1293
-385 -149 -28 -159 -43 -136 -181 8 -49 18 -114 21 -144 4 -30 8 -68 10 -85 3
-16 7 -120 11 -230 8 -231 -5 -432 -42 -671 -27 -178 -24 -204 25 -223 14 -5
116 -28 226 -51 541 -114 1042 -282 1462 -492 175 -88 183 -91 213 -78 42 17
279 254 362 360 184 238 298 471 359 735 30 132 37 394 15 538 -60 379 -255
730 -588 1055 -83 80 -100 92 -129 92 -19 0 -44 -7 -55 -15z"/>
<path d="M6445 5219 c-315 -48 -721 -83 -1139 -99 -227 -8 -272 -13 -288 -27
-17 -15 -18 -46 -18 -562 0 -467 2 -550 15 -568 14 -19 27 -21 172 -27 320
-12 402 -17 593 -32 166 -12 508 -47 575 -58 11 -2 75 -12 143 -22 121 -17
123 -17 141 2 19 20 48 169 73 379 15 133 16 562 0 700 -21 179 -43 299 -60
318 -19 21 -49 21 -207 -4z"/>
<path d="M5020 3790 c-20 -20 -20 -33 -20 -863 0 -828 0 -844 20 -862 16 -15
30 -17 82 -11 629 71 1207 654 1472 1485 30 92 28 126 -7 141 -43 19 -511 75
-827 100 -149 11 -539 30 -637 30 -50 0 -67 -4 -83 -20z"/>
</g>
</svg>
